HIERARCHY
ROOT Hips
{
    OFFSET 0.0 0.0 -0.0
    CHANNELS 6 Xposition Yposition Zposition Zrotation Xrotation Yrotation
    JOINT RightUpLeg
    {
        OFFSET -11.822981533748464 -11.822981533748464 0.0
        CHANNELS 3 Zrotation Xrotation Yrotation
        JOINT RightLeg
        {
            OFFSET 0.0 -48.40704761483516 0.0
            CHANNELS 3 Zrotation Xrotation Yrotation
            JOINT RightFoot
            {
                OFFSET 0.0 -33.34787410211587 0.0
                CHANNELS 3 Zrotation Xrotation Yrotation
                JOINT RightToe
                {
                    OFFSET 0.0 -8.919724254951085 0.0
                    CHANNELS 3 Zrotation Xrotation Yrotation
                    End Site
                    {
                        OFFSET 0.0 0.0 8.919724254951085
                    }
                }
            }
        }
    }
    JOINT LeftUpLeg
    {
        OFFSET 11.822981533748464 -11.822981533748464 0.0
        CHANNELS 3 Zrotation Xrotation Yrotation
        JOINT LeftLeg
        {
            OFFSET 0.0 -48.40704761483516 0.0
            CHANNELS 3 Zrotation Xrotation Yrotation
            JOINT LeftFoot
            {
                OFFSET 0.0 -33.34787410211587 0.0
                CHANNELS 3 Zrotation Xrotation Yrotation
                JOINT LeftToe
                {
                    OFFSET 0.0 -8.919724254951085 0.0
                    CHANNELS 3 Zrotation Xrotation Yrotation
                    End Site
                    {
                        OFFSET 0.0 0.0 8.919724254951085
                    }
                }
            }
        }
    }
    JOINT Spine
    {
        OFFSET 0.0 14.944183379460693 0.0
        CHANNELS 3 Zrotation Xrotation Yrotation
        JOINT Spine3
        {
            OFFSET 0.0 14.944183379460693 0.0
            CHANNELS 3 Zrotation Xrotation Yrotation
            JOINT Neck
            {
                OFFSET 0.0 9.864380818348243 0.0
                CHANNELS 3 Zrotation Xrotation Yrotation
                JOINT Head
                {
                    OFFSET 0.0 16.1023957757701 0.0
                    CHANNELS 3 Zrotation Xrotation Yrotation
                    End Site
                    {
                        OFFSET 0.0 6.440958310308039 0.0
                    }
                }
            }
            JOINT LeftArm
            {
                OFFSET 14.696279713160402 0.0 0.0
                CHANNELS 3 Zrotation Xrotation Yrotation
                JOINT LeftForeArm
                {
                    OFFSET 25.806183324291887 0.0 0.0
                    CHANNELS 3 Zrotation Xrotation Yrotation
                    JOINT LeftHand
                    {
                        OFFSET 25.179201808370976 0.0 0.0
                        CHANNELS 3 Zrotation Xrotation Yrotation
                        End Site
                        {
                            OFFSET 6.7278750993599825 0.0 0.0
                        }
                    }
                }
            }
            JOINT RightArm
            {
                OFFSET -14.696279713160402 0.0 0.0
                CHANNELS 3 Zrotation Xrotation Yrotation
                JOINT RightForeArm
                {
                    OFFSET -25.806183324291887 0.0 0.0
                    CHANNELS 3 Zrotation Xrotation Yrotation
                    JOINT RightHand
                    {
                        OFFSET -25.179201808370976 0.0 0.0
                        CHANNELS 3 Zrotation Xrotation Yrotation
                        End Site
                        {
                            OFFSET -6.7278750993599825 0.0 0.0
                        }
                    }
                }
            }
        }
    }
}
MOTION
Frames: 9
Frame Time: 0.04
-3.838412984888154e-05 16.1522659354978 13.645645014043218 6.644331312647898 0.6720328139630831 -169.4051323170693 5.78825940361879 -14.372136286653111 -54.1024744961712 -4.629402964868497 12.462757145421444 110.56715883320237 -21.61456631664067 -22.961488092797023 -135.44517843080078 14.79998051174204 1.3798101340895246 -14.465689723455624 6.126357271652326 2.7677327243047323 14.280846923927765 -2.9992721432700153 13.901330651774082 -11.084125975947616 -7.951386703658792e-16 -4.138037154422024e-33 5.963540027744094e-16 -7.951386703658792e-16 -4.138037154422024e-33 5.963540027744094e-16 -3.1137754571945075e-16 -6.213880268515163e-34 2.286800179909682e-16 1.6263158477813119e-15 -7.338607973250171e-16 -22.823716850289507 19.58908480741729 2.583467357345022 -168.71134423279966 -1.596012418547327e-15 4.858691101969244 -168.4269232642305 128.84550843781892 18.42063471349949 -155.1220145098125 1.571626300163882e-14 2.4284314500941068e-15 91.3072198026498 -19.93152704170581 -4.675933818999619 4.631406206104827 -160.73738950069466 64.51258599758351 -159.45509282688585 -5.43290447522648e-15 -1.1613241592767318e-14 -35.8922158239255 -85.55667494179244 64.50164107412155 61.61808940115417
-3.772915971983986e-05 16.113828887659462 13.643459016383003 6.655738547820824 1.8447241458336472 -168.2131740395008 5.21211370369413 -15.269779004280172 -60.059161179153264 -9.029487804486893 14.433013098857169 122.52020695740761 -24.027221790563004 -22.002920431437754 -139.95591966664728 14.549703765749593 1.4669781404968394 -13.97864185101591 6.493281785928278 3.235694263947288 16.052112760108223 -2.9817516532026325 14.272245616809554 -10.764748169167037 -3.975693351829397e-16 -3.1805546814635168e-15 -3.578124016646457e-15 -3.975693351829397e-16 -3.1805546814635168e-15 -3.578124016646457e-15 -8.448348372637467e-16 -5.4958305957167506e-34 7.454425034680117e-17 2.237912966414437e-16 3.6084098002362785e-16 -22.501765688606085 20.056048472667264 2.220689898601196 -170.5740071611498 -3.004817753763028e-16 7.101019760224213 -166.62654943863794 128.8696806169664 13.813228589918703 -157.35236887267104 -5.508476481002988e-15 -3.556596857362356e-15 93.76982432757605 -17.24808016737862 -3.3158327088657336 7.453984672727939 -155.04128145318333 64.16616760016315 -165.58636616094267 4.196169197488079e-15 1.2010287813975322e-14 -38.51691306920096 -69.85419009913242 61.24055418516553 49.49589415714322
-3.8936256632124156e-05 15.990628399384248 13.497169135257806 7.3390539090920885 2.778087285452008 -164.74344711775996 4.343767365051441 -15.9738416126042 -67.09603200365274 -13.095690155799321 15.732154312899258 130.62829192538402 -25.227102549135278 -21.31191599669847 -142.35295502036587 13.990773015767765 1.5407385045779256 -13.639581227160873 7.7583663305886725 3.745531385916837 14.534910323018723 -4.249880482470563 13.271125167013812 -8.928305450267297 -3.975693351829396e-16 -5.517382872562698e-33 1.5902773407317584e-15 -3.975693351829396e-16 -5.517382872562698e-33 1.5902773407317584e-15 -1.1927080055488188e-15 3.362155187967894e-33 -3.2302508483613845e-16 1.1270795260331172e-16 -4.2996934514826205e-16 -23.75314183747303 22.517519587736896 2.2694666651929247 -173.22376172227652 -4.816200466278279e-15 7.8705268609157475 -162.7531512874296 127.74508632752553 9.43531466074347 -156.8022243026995 -2.5933732230140462e-15 6.6222394803458455e-15 95.90228844106181 -13.89536056172107 -2.372318625130525 9.613395658150015 -156.14262213692578 65.33600485012413 -166.827301243474 -5.415543826813091e-15 -1.162134744290796e-14 -35.72097256293031 -88.37399005679647 65.03474016354134 67.72385917215463
-4.0470881437861614e-05 15.591686838470133 13.326418742749798 7.99534810118601 3.4775237199675813 -161.9748063839728 3.047005411042884 -16.595667082032396 -74.46625200211808 -17.69641484884526 15.894407316072579 139.35988248493382 -26.023799893084085 -20.885051620295485 -143.86488948952908 13.294938165543483 1.4630554428136024 -13.251181421113477 8.914633030318566 3.9331139575003458 12.878551714656014 -5.4124427262109025 12.45783734401453 -7.527441698271381 2.3854160110976376e-15 2.896626008095417e-32 1.3914926731402886e-15 2.3854160110976376e-15 2.896626008095417e-32 1.3914926731402886e-15 2.1866313435061676e-15 3.975693351829396e-16 4.9696166897867443e-17 3.8824062453102866e-16 -8.56188865937967e-17 -24.872811468305855 24.974282296867838 2.143908122848854 -175.2698352900676 -2.613595226570955e-15 8.601213642866407 -159.5623492371422 127.86518211371077 7.137738384410596 -155.9416224005221 8.446532422639357e-15 -7.25094538905796e-15 98.71096502040187 -10.824075269002927 -1.5492862123766957 10.061112342567018 -157.21774721218625 64.40374619691656 -168.71250845830303 6.3803612419530965e-15 4.7450543656848205e-15 -32.98407611712081 -105.23603462755048 66.44745107589993 82.08843017918525
-4.3182080844417214e-05 15.640796505668188 15.016345606195966 8.755657872014282 4.120647184758924 -159.45041873519762 2.6148365385382957 -17.38487130207473 -80.12993458919946 -18.6667483609175 15.288815876021616 142.02745095377676 -25.483765874463984 -21.11211026398332 -142.92117042574716 13.46140906470487 1.3505153690790748 -13.106180495922947 9.678569064929544 4.366574291953202 11.301342535182217 -6.24859363575706 12.17976787866525 -6.584782783887556 -3.975693351829396e-16 -2.758691436281349e-33 7.951386703658792e-16 -3.975693351829396e-16 -2.758691436281349e-33 7.951386703658792e-16 -1.4908850069360234e-15 -1.9397049161353236e-32 1.4908850069360234e-15 2.7768900227238452e-15 9.960604062974192e-16 -25.77303297411332 26.95827010066998 1.7816081126130032 -177.22029335134903 -1.4505156111859878e-14 9.34876253300574 -156.7944586135039 127.29301684616473 4.2186780266758825 -154.5181803147029 -3.013957613620984e-15 2.592720025586365e-15 98.59328058641798 -8.979896936989837 -1.4282440934302916 10.01774772722089 -161.6891279388549 65.64351517233658 -165.16464177492446 3.1917927436702184e-15 1.2315328188478213e-14 -29.05957984791025 -130.61920804342535 64.36589951789286 105.93111315122698
-3.7249771677042275e-05 16.153322579753084 12.17156448679369 7.9217969589418935 3.877219739941673 -161.4781322772199 3.120407493377541 -15.34991739980394 -72.46375222580724 -17.395091061317114 16.702595179774935 137.46727686704753 -27.092063669916506 -21.136676742479146 -144.81987186988613 13.198496374032164 1.563163965456519 -13.310527112152418 8.49356117509014 3.819438376892101 12.43351602170422 -6.423484747219376 12.101090876982607 -6.809035975952034 0.0 0.0 -1.3914926731402886e-15 0.0 0.0 -1.3914926731402886e-15 4.075085685625131e-15 5.9635400277440935e-15 1.962998592465764e-15 7.951250681192059e-16 1.4641478910709027e-15 -22.301478068194204 24.414010352588903 1.237324993030903 -178.16559268319367 1.4069409932379192e-15 8.498426111995572 -159.06036459456215 127.2819666442279 -0.07789171903057938 -158.83579164540228 1.5522668567505146e-14 -1.3654476262331386e-14 97.32721555109272 -9.982471867545893 -1.4907408855584108 11.89739069196664 -155.29135641096588 64.40121636617697 -169.6697538439555 3.576371723214104e-15 1.2209193855691965e-14 -32.653198754119686 -109.73232005447426 65.6277550819518 85.23361715796058
-3.751394383884458e-05 16.46616272064665 12.717244689803126 7.970238544285157 4.212490471456536 -160.16936855456774 3.0090178583021063 -15.023424121762949 -72.8758796180241 -16.402571027107083 16.719431066310953 135.65748011955566 -27.220679840634425 -21.36560854593372 -144.69169964432976 13.465540763469164 1.5287785516594155 -13.399071939456082 9.074186974634308 4.20239378668891 12.00261392684638 -6.191522354232686 12.419790507972197 -6.9655051578667555 3.975693351829396e-16 4.827710013492361e-33 1.3914926731402886e-15 3.975693351829396e-16 4.827710013492361e-33 1.3914926731402886e-15 1.0933156717530834e-15 6.758678698109972e-15 4.696287771848473e-15 -1.6152299445727443e-15 -4.959998338440991e-16 -22.00394660260201 23.74278909721845 0.559484577258809 -179.71026473500558 1.6108299246292569e-15 9.162391573149737 -157.97655131195538 125.6739200001469 -3.371211719894124 -160.8459107802977 3.3222612724999225e-15 -7.09157204243427e-15 98.12930020560698 -7.98967270221158 -1.0392247833305788 14.916607211957702 -150.79603098983705 66.41627209788636 -175.17644727511836 -3.5105157330734767e-15 -1.2228292137347534e-14 -32.03558020570589 -126.55471387013587 62.67520420972201 101.8796070899004
-4.068071774037724e-05 16.48870038468542 14.649510269346132 7.967948633183802 3.7469745658879994 -159.70210905623415 3.1086057614500935 -14.919176779803518 -69.8942900010094 -11.537749984399476 15.946245143424509 126.61371115184757 -25.477267664109203 -22.75349374155573 -140.93366084817708 14.375118500701323 1.3534977088911087 -13.57058409428156 9.362872854353036 4.999876649008724 10.592619299642147 -7.088796866431364 12.214878320750962 -6.769622631898351 0.0 0.0 -1.987846675914698e-16 0.0 0.0 -1.987846675914698e-16 4.47265502080807e-15 7.156248033292914e-15 9.417423627145883e-15 1.8086453765843892e-15 4.647913681308815e-16 -21.577868795984717 23.147967508277187 -0.04381626140382759 179.7016793049713 -1.005726214513885e-15 8.786528511869266 -157.87321443530604 124.51860875934426 -0.6260239142314101 -160.55271712540295 1.2600938625425204e-15 -9.491457301105523e-15 98.39190379976712 -9.628687165791996 -1.2252974667241565 14.827367197586005 -154.35205895011066 69.56159095990843 -172.73588309828762 -8.17723417002571e-15 -1.7533458881646975e-14 -31.08205513970772 -132.8479969506402 61.48641079251678 108.6249525510747
-4.023245855933055e-05 16.668245744698357 14.420916298389088 8.735387831248376 3.430641202048571 -160.74487760165252 4.925578297914935 -14.253048474428377 -65.22067485113195 -8.674764648815515 15.207828364201209 120.18307764816993 -25.115214590618812 -22.929462994130148 -140.26910763957096 14.596356416611254 1.4001041439548036 -13.916999561252824 10.450649634003268 5.341575577683213 9.24061927217699 -7.326808805622582 12.582361444375389 -7.1847930403398275 0.0 0.0 1.3914926731402886e-15 0.0 0.0 1.3914926731402886e-15 8.448348372637467e-16 1.09916611914335e-32 1.4908850069360234e-15 -1.949993325221842e-15 3.860834605825242e-16 -22.398551506646132 24.032538868313924 0.8100682700800579 -178.52888651870524 2.0072002420169986e-16 7.962920074573295 -158.98880999268175 124.0354696007712 -7.629038300066228 -161.502521153634 -3.898799999564247e-15 -7.781363577023524e-16 96.31377072936985 -8.006547211319718 -1.321491210796484 15.842720156868893 -152.6697056781411 70.17094523236908 -176.69058614447388 1.9181298088237786e-16 6.554075230566694e-15 -31.42519125413828 -134.66977705906663 60.87040554382791 109.82160716922162
